Coordinates
version=1
nRows=19
nColumns=36
inDegrees=yes

Units are S.I. units (second, meters, Newtons, ...)
If the header above contains a line with 'inDegrees', this indicates whether rotational values are in degrees (yes) or radians (no).

endheader
time	pelvis_tilt	pelvis_list	pelvis_rotation	pelvis_tx	pelvis_ty	pelvis_tz	hip_flexion_r	hip_adduction_r	hip_rotation_r	knee_angle_r	knee_angle_r_beta	ankle_angle_r	subtalar_angle_r	mtp_angle_r	hip_flexion_l	hip_adduction_l	hip_rotation_l	knee_angle_l	knee_angle_l_beta	ankle_angle_l	subtalar_angle_l	mtp_angle_l	lumbar_extension	lumbar_bending	lumbar_rotation	arm_flex_r	arm_add_r	arm_rot_r	elbow_flex_r	pro_sup_r	arm_flex_l	arm_add_l	arm_rot_l	elbow_flex_l	pro_sup_l
      1.96666670	     -5.34449953	     -2.97984013	     18.35187246	      0.61920196	      0.89597355	     -0.02959078	     38.17551462	     -2.62559731	     -4.71264022	     11.55370745	      0.20165024	      3.48339709	      3.93107973	     -7.49999987	     13.00500052	      3.75168815	     -2.99295328	     26.67047718	      0.46548764	     23.82095359	     -1.59935407	     -7.49999987	     11.76781480	    -10.06381293	      1.39842154	     23.10247472	      1.05651654	     49.47224533	    123.23128781	     89.93191778	     21.95790237	     -5.60567723	     57.04329509	    128.48880453	     92.97505926
      1.98333330	     -5.52726446	     -3.05137757	     18.32423698	      0.61939092	      0.90014790	     -0.02966490	     38.24788305	     -2.62958557	     -4.92958638	     11.16782458	      0.19491531	      3.37590556	      4.21122255	     -7.49999987	     12.42075952	      3.65372771	     -3.10463200	     25.28209101	      0.44125573	     23.53254116	     -0.93144142	     -7.49999987	     12.05914377	    -10.08745577	      0.82649422	     23.29230735	      1.27745578	     49.75357710	    123.21349292	     94.41325838	     22.41678753	     -5.68935769	     57.22750906	    128.22505308	     97.72954678
      2.00000000	     -5.86604760	     -3.19462984	     18.27614838	      0.61997611	      0.89990221	     -0.03010368	     38.58596191	     -2.62367267	     -4.91888946	     10.77399233	      0.18804164	      3.19430722	      4.26074954	     -7.49999987	     12.17674564	      3.55709738	     -2.98692407	     24.21913495	      0.42270365	     23.43713331	     -0.61841563	     -7.49999987	     12.62994112	    -10.08997189	      0.37565266	     23.50102296	      1.45136402	     49.78562386	    123.19153025	     93.90784759	     22.82416087	     -5.72044355	     57.32503001	    127.99389679	     97.25259304
      2.01666670	     -5.72322094	     -3.08813420	     18.22054406	      0.62001160	      0.90254157	     -0.02989236	     38.27777221	     -2.66493309	     -5.03168185	     10.21419589	      0.17827135	      3.07479977	      4.57690927	     -7.49999987	     11.23191064	      3.48354262	     -3.20332214	     22.87766943	      0.39929066	     22.87947674	      0.16033894	     -7.49999987	     12.22653451	    -10.23414888	     -0.13521055	     23.98660074	      1.55686373	     50.79403103	    123.62900325	     92.65390517	     23.60092743	     -6.14495944	     59.02384041	    128.15740229	     95.99829282
      2.03333330	     -5.77958616	     -3.20130058	     18.13221613	      0.62031307	      0.90084213	     -0.03004720	     38.29104453	     -2.61151120	     -5.11678109	      9.93638372	      0.17342261	      3.03423200	      4.66617575	     -7.49999987	     10.88573276	      3.30681176	     -3.25866098	     22.16629365	      0.38687481	     22.80079181	      0.56008398	     -7.49999987	     12.22831739	    -10.13338542	     -0.11648600	     24.54771448	      1.43491135	     51.22087127	    124.21974897	     92.42038151	     24.14421173	     -6.24409630	     59.75577745	    127.92238385	     95.74917119
      2.05000000	     -6.03059077	     -3.29071402	     18.04675626	      0.62032983	      0.90101575	     -0.03010565	     38.61214303	     -2.65629337	     -4.99612147	      9.78054568	      0.17070272	      2.93453785	      4.55683925	     -7.49999987	     10.67624821	      3.26982935	     -3.14544833	     21.26725512	      0.37118362	     22.68045440	      0.81811842	     -7.49999987	     12.56570331	    -10.11959312	     -0.24295777	     24.84787991	      1.42300166	     51.12037548	    124.33089846	     91.13146653	     24.24525649	     -6.41313922	     59.85515732	    127.95479021	     94.66107264
      2.06666670	     -5.84318238	     -3.27731356	     17.99410368	      0.62006445	      0.90626086	     -0.03007374	     38.32576742	     -2.62179308	     -5.04340864	      9.42076182	      0.16442331	      2.79065061	      4.59337853	     -7.49999987	      9.93694712	      3.19119446	     -3.08678037	     20.35638792	      0.35528599	     22.58174363	      1.15142594	     -7.49999987	     12.14988715	    -10.13818553	      0.22982562	     24.79148707	      1.00610892	     51.07561711	    124.90089700	     93.73737498	     24.85533693	     -6.44187369	     60.71910347	    127.61740040	     96.71170885
      2.08333330	     -5.72197588	     -3.29608256	     17.97968888	      0.61998923	      0.90663912	     -0.03019633	     38.04151544	     -2.58429054	     -5.08455872	      9.07559243	      0.15839897	      2.66918351	      4.73838979	     -7.49999987	      9.33774472	      3.12367908	     -2.90607771	     19.47367297	      0.33987971	     22.30365031	      1.31398520	     -7.49999987	     11.90834219	    -10.08706228	      0.19862915	     24.98246948	      0.88680288	     51.39838766	    124.97477501	     94.06558713	     24.79362450	     -6.42774255	     60.78978390	    127.77223054	     96.83071206
      2.10000000	     -5.87474052	     -3.40845706	     17.94503281	      0.61989328	      0.90657855	     -0.03030608	     38.15249994	     -2.55599322	     -5.09483406	      8.97155822	      0.15658323	      2.63419562	      4.60546332	     -7.49999987	      9.06888927	      3.01254094	     -2.81899157	     18.79491334	      0.32803312	     21.99811617	      1.27099343	     -7.49999987	     12.16739619	    -10.00710651	      0.35456017	     24.76309633	      0.84169706	     51.13790798	    124.82885794	     92.72583206	     24.36013927	     -6.55809979	     60.72473895	    127.83269551	     95.49956736
      2.11666670	     -5.60977346	     -3.35597758	     17.90982233	      0.61991006	      0.90926834	     -0.03061917	     37.76357374	     -2.54330924	     -5.07976253	      8.85947463	      0.15462700	      2.49304571	      4.49685559	     -7.49999987	      8.45933074	      2.94023734	     -2.86757079	     18.27642779	      0.31898384	     21.90958059	      1.29830509	     -7.49999987	     11.67634415	    -10.03081922	      0.50705260	     24.71577182	      0.71211889	     50.98882123	    124.98842804	     91.99032844	     24.37501536	     -6.42409291	     61.01381444	    128.18828032	     94.58761997
      2.13333330	     -5.41889885	     -3.28010944	     17.82137449	      0.61961742	      0.91177510	     -0.03029823	     37.54353765	     -2.53218973	     -4.97546994	      8.81540456	      0.15385783	      2.28643651	      4.41159871	     -7.49999987	      8.06554952	      2.94602431	     -2.87436292	     17.94765080	      0.31324560	     21.77657566	      1.26977586	     -7.49999987	     11.26313449	    -10.13589643	      0.71168657	     24.45942725	      0.75558537	     51.45666669	    125.05407159	     91.82375517	     24.13999912	     -6.64549302	     61.51987517	    127.91910707	     94.22993324
      2.15000000	     -5.31953758	     -3.17804598	     17.84666192	      0.61947315	      0.91160151	     -0.03035384	     37.32865737	     -2.62638659	     -4.88709030	      8.68527388	      0.15158663	      2.08237322	      4.36526778	     -7.49999987	      7.81655309	      3.03975442	     -2.82409330	     17.68581265	      0.30867566	     21.76320032	      1.20259238	     -7.49999987	     11.02417244	    -10.36989239	      0.82080445	     24.06222945	      1.08389401	     51.75538708	    125.14970988	     96.14174769	     23.86111703	     -6.93104097	     61.37685734	    127.47062933	     96.60653777
      2.16666670	     -5.21439137	     -3.21244505	     17.79964046	      0.61947195	      0.90729033	     -0.03032098	     37.20205851	     -2.58759045	     -4.68708291	      8.80732525	      0.15371682	      1.98037145	      4.03122874	     -7.49999987	      7.67108704	      2.95149025	     -2.87531133	     17.65926591	      0.30821233	     21.88684950	      1.25100081	     -7.49999987	     10.88593381	    -10.38833686	      0.83188905	     23.96954976	      1.40953487	     52.62679997	    125.41998946	     94.98176889	     23.74045190	     -6.88296309	     61.07789510	    127.31091463	     95.14372320
      2.18333330	     -5.10847895	     -3.25795947	     17.80498295	      0.61926768	      0.90742780	     -0.03049018	     37.10109443	     -2.58353899	     -4.65809333	      8.93891252	      0.15601345	      1.87979388	      3.93594001	     -7.49999987	      7.72209074	      2.85794964	     -2.84758467	     17.95095651	      0.31330329	     22.13018419	      1.13630775	     -7.49999987	     10.74688878	    -10.38453025	      0.90836773	     24.00675678	      1.53949871	     53.30336847	    125.66425667	     97.26308035	     23.43877249	     -6.99230985	     60.64911800	    127.25245653	     97.05847213
      2.20000000	     -5.02344732	     -3.26168660	     17.86808289	      0.61880340	      0.90761687	     -0.03020082	     37.16144080	     -2.63531448	     -4.47048579	      9.16808117	      0.16001320	      1.72880678	      3.61458507	     -7.49999987	      7.93121853	      2.84954035	     -2.89897529	     18.50974282	      0.32305596	     22.30328005	      0.88947484	     -7.49999987	     10.54002457	    -10.50024608	      1.08111934	     23.96805170	      1.56158910	     53.60511319	    125.65191099	     95.87143199	     23.18174655	     -6.90689002	     60.57379103	    127.38322970	     95.59199551
      2.21666670	     -4.87688775	     -3.39938424	     17.84565973	      0.62305187	      0.90595676	     -0.02812766	     36.99037134	     -2.41567676	     -4.31360174	      9.25727340	      0.16156990	      1.89054250	      3.50915564	     -7.49999987	      7.97402804	      2.63462499	     -2.93035718	     18.88443203	      0.32959552	     22.59488169	      0.68231018	     -7.49999987	     10.48273712	    -10.46146579	      1.18738884	     23.86134446	      1.84012177	     53.56781181	    125.55572446	     95.94557199	     23.06870868	     -6.66179427	     60.51949767	    127.51474104	     95.64368181
      2.23333330	     -4.78565304	     -3.63632821	     17.83335217	      0.62285371	      0.90374159	     -0.02842889	     36.81995443	     -2.09678069	     -4.10217006	      9.43999360	      0.16475897	      2.06782362	      2.97975890	     -7.49999987	      8.04269835	      2.33061162	     -3.07590654	     19.23667207	      0.33574326	     22.66837699	      0.61134984	     -7.49999987	     10.60862499	    -10.25596972	      1.19296981	     23.85451602	      1.92091399	     52.97076000	    125.21039547	     97.86724722	     22.38653259	     -6.63999696	     60.07945141	    128.25621307	     96.57437085
      2.25000000	     -4.77854944	     -3.84271044	     17.77052315	      0.62274909	      0.90338628	     -0.02856000	     36.66376352	     -1.82371477	     -4.12109659	      9.56471216	      0.16693572	      2.32083618	      2.92464713	     -7.49999987	      8.21423345	      2.07621597	     -3.17195271	     19.59786718	      0.34204731	     22.83932721	      0.50008374	     -7.49999987	     10.88543721	    -10.19470405	      1.42342434	     23.81429693	      1.91259381	     52.12239359	    125.02212241	     95.89531872	     21.84395284	     -6.57004718	     59.76147102	    128.98104453	     94.64460781
      2.26666670	     -4.61169554	     -3.87636338	     17.77993185	      0.61907924	      0.90333188	     -0.02619533	     36.46528487	     -1.69296553	     -4.09567552	      9.69513209	      0.16921198	      2.25940628	      2.91338164	     -7.49999987	      8.46109836	      1.95976810	     -3.43521865	     20.24370848	      0.35331937	     22.68428793	      0.36522391	     -7.49999987	     10.71767112	    -10.33956973	      1.74567908	     23.96000024	      1.82518109	     51.90321911	    124.85010708	     95.92754896	     21.47076746	     -6.56880169	     59.80914722	    129.19577772	     94.69060831
